<?xml version="1.0" standalone="no"?>
<!DOCTYPE svg PUBLIC "-//W3C//DTD SVG 20010904//EN"
 "http://www.w3.org/TR/2001/REC-SVG-20010904/DTD/svg10.dtd">
<svg version="1.0" xmlns="http://www.w3.org/2000/svg"
 width="128.000000pt" height="128.000000pt" viewBox="0 0 128.000000 128.000000"
 preserveAspectRatio="xMidYMid meet">
<metadata>
Created by potrace 1.14, written by Peter Selinger 2001-2017
</metadata>
<g transform="translate(0.000000,128.000000) scale(0.100000,-0.100000)"
fill="#000000" stroke="none">
<path d="M470 1175 c0 -23 -4 -25 -45 -25 -38 0 -45 -3 -45 -20 0 -15 -7 -20
-25 -20 -23 0 -25 -4 -25 -45 0 -41 -2 -45 -25 -45 l-25 0 0 -140 0 -140 25 0
c20 0 25 -5 25 -25 0 -20 5 -25 25 -25 18 0 25 -5 25 -20 0 -17 7 -20 45 -20
41 0 45 -2 45 -25 0 -23 4 -25 45 -25 41 0 45 -2 45 -25 0 -24 2 -25 70 -25
63 0 70 -2 70 -20 0 -17 7 -20 45 -20 41 0 45 -2 45 -25 0 -20 5 -25 25 -25
20 0 25 -5 25 -25 0 -18 5 -25 20 -25 19 0 20 -7 20 -90 0 -83 -1 -90 -20 -90
-15 0 -20 -7 -20 -25 l0 -25 -165 0 -165 0 0 25 c0 18 -5 25 -20 25 -15 0 -20
7 -20 25 0 20 -5 25 -25 25 -23 0 -25 4 -25 45 0 38 -3 45 -20 45 -13 0 -20 7
-20 20 0 15 -7 20 -25 20 -20 0 -25 5 -25 25 0 23 -4 25 -45 25 l-45 0 0 -210
c0 -203 1 -210 20 -210 15 0 20 7 20 25 0 23 3 25 50 25 l50 0 0 45 0 45 45 0
c38 0 45 -3 45 -20 0 -13 7 -20 20 -20 15 0 20 -7 20 -25 l0 -25 185 0 185 0
0 25 c0 20 5 25 25 25 18 0 25 5 25 20 0 15 7 20 25 20 20 0 25 5 25 25 0 18
5 25 20 25 15 0 20 7 20 25 0 20 5 25 25 25 l25 0 0 115 0 115 -25 0 c-23 0
-25 4 -25 45 0 38 -3 45 -20 45 -15 0 -20 7 -20 25 0 23 -3 25 -50 25 -43 0
-50 3 -50 20 0 18 -7 20 -65 20 -63 0 -65 1 -65 25 0 23 -3 25 -50 25 -43 0
-50 3 -50 20 0 18 -7 20 -70 20 -68 0 -70 1 -70 25 0 18 -5 25 -20 25 -19 0
-20 7 -20 115 0 108 1 115 20 115 15 0 20 7 20 25 0 25 0 25 95 25 95 0 95 0
95 -25 0 -23 4 -25 45 -25 38 0 45 -3 45 -20 0 -15 7 -20 25 -20 20 0 25 -5
25 -25 0 -18 5 -25 20 -25 15 0 20 -7 20 -25 0 -20 5 -25 25 -25 24 0 25 -2
25 -70 l0 -70 45 0 45 0 0 210 0 210 -45 0 c-41 0 -45 -2 -45 -25 0 -20 -5
-25 -25 -25 -18 0 -25 -5 -25 -20 0 -17 -7 -20 -45 -20 -38 0 -45 3 -45 20 0
17 -7 20 -45 20 -41 0 -45 2 -45 25 l0 25 -115 0 -115 0 0 -25z m460 -90 c0
-20 -5 -25 -25 -25 -20 0 -25 5 -25 25 0 20 5 25 25 25 20 0 25 -5 25 -25z
m-550 -880 c0 -20 -5 -25 -25 -25 -20 0 -25 5 -25 25 0 20 5 25 25 25 20 0 25
-5 25 -25z"/>
</g>
</svg>
